    <svg id="epsbSyZdi7O1" stroke-width="4" xmlns="http://www.w3.org/2000/svg" xmlns:xlink="http://www.w3.org/1999/xlink" viewBox="0 0 300 300" shape-rendering="geometricPrecision" text-rendering="geometricPrecision">
        <path d="" transform="translate(-40-34)" fill="none" stroke="#3f5787" stroke-width="0.6"/>
        <rect width="36.049439" height="36.049439" rx="0" ry="0" transform="matrix(.436384 0 0 0.436384 36.368577 36.930868)" fill="none" stroke="#f00" stroke-width="8"/><rect width="36.049439" height="36.049439" rx="0" ry="0" transform="translate(.319138 52.662266)" fill="none" stroke="#f00"/><rect width="36.049439" height="36.049439" rx="0" ry="0" transform="translate(52.099975 0.881429)" fill="none" stroke="#f00"/><rect width="36.049439" height="36.049439" rx="0" ry="0" transform="translate(.319138 0.881429)" fill="none" stroke="#f00"/><path d="M92.099975,86.662266q52.732323,0,53.01623,0" transform="translate(-40-34)" fill="none" stroke="#ff0005"/><path d="M93.311652,86.662266q52.732323,0,51.804553,0" transform="matrix(1.028723 0 0 1-96.42301 18.688509)" fill="none" stroke="#ff0005"/><path d="M92.099975,86.662266q52.732323,0,53.01623,0" transform="matrix(0 1.019042-1 0 86.981404-5.142037)" fill="none" stroke="#ff0005"/><path d="M90.13379,86.662266q52.732323,0,54.982415,0" transform="matrix(.632149 0 0 1 48.13822-85.780837)" fill="none" stroke="#ff0005"/><path d="M92.197025,86.662266q53.01623,0,52.925469,0" transform="matrix(0 0.97471 1 0 18.453939-89.45434)" fill="none" stroke="#ff0005"/><path d="M92.099975,86.662266q52.732323,0,53.01623,0" transform="matrix(0 1-1 0 138.762241-39.437709)" fill="none" stroke="#ff0005"/></svg>    
